<?xml version="1.0" standalone="no"?>
<!DOCTYPE svg PUBLIC "-//W3C//DTD SVG 20010904//EN"
 "http://www.w3.org/TR/2001/REC-SVG-20010904/DTD/svg10.dtd">
<svg version="1.0" xmlns="http://www.w3.org/2000/svg"
 width="525.000000pt" height="525.000000pt" viewBox="0 0 525.000000 525.000000"
 preserveAspectRatio="xMidYMid meet">
<metadata>
Created by potrace 1.14, written by Peter Selinger 2001-2017
</metadata>
<g transform="translate(0.000000,525.000000) scale(0.100000,-0.100000)"
fill="#000000" stroke="none">
<path d="M2538 5206 c-1 -2 -41 -6 -88 -10 -80 -5 -313 -44 -390 -65 -293 -78
-572 -203 -815 -364 -196 -131 -277 -198 -460 -382 -425 -427 -703 -997 -772
-1580 -9 -85 -10 -413 0 -510 42 -402 206 -824 445 -1145 276 -371 689 -692
1112 -864 36 -15 74 -31 85 -36 37 -17 259 -88 340 -109 101 -25 347 -68 451
-78 176 -16 557 -4 684 22 14 2 41 7 60 10 219 36 523 136 725 240 73 37 216
119 240 137 6 5 53 38 105 75 52 37 108 79 124 93 133 115 159 140 285 275
134 144 257 326 387 575 59 113 160 390 179 490 4 25 -9 5 -45 -64 -28 -55
-60 -112 -71 -127 -10 -15 -19 -30 -19 -33 0 -12 -121 -174 -198 -266 -252
-300 -610 -539 -1002 -667 -104 -34 -228 -66 -304 -77 -21 -4 -48 -8 -60 -11
-124 -27 -344 -35 -552 -22 -112 8 -126 10 -224 28 -30 6 -68 13 -85 16 -67
11 -237 62 -360 108 -167 62 -498 248 -590 332 -11 10 -43 36 -70 58 -149 118
-349 350 -470 546 -123 199 -239 487 -279 699 -35 180 -41 249 -41 475 1 163
5 224 24 330 77 438 291 844 611 1164 132 133 302 266 435 341 108 61 152 83
245 123 117 51 280 107 383 132 111 27 218 44 372 60 61 6 336 6 370 0 19 -4
26 -3 20 3 -10 9 -179 46 -263 57 -24 4 -60 8 -80 11 -41 6 -438 14 -444 10z"/>
<path d="M1632 3483 c-38 -130 -367 -1240 -376 -1271 l-7 -22 184 0 184 0 51
193 c29 105 77 284 108 397 93 343 115 424 119 440 14 57 34 124 35 120 4 -14
9 -68 15 -190 4 -74 8 -155 10 -180 11 -170 18 -282 20 -325 3 -61 17 -295 20
-350 2 -22 4 -55 4 -72 l1 -33 194 0 194 0 273 433 c150 237 313 495 361 571
100 158 100 159 89 120 -23 -77 -64 -213 -86 -289 -27 -93 -48 -162 -125 -425
-29 -96 -58 -195 -65 -220 -7 -25 -23 -76 -34 -115 -12 -38 -21 -71 -21 -72 0
-2 83 -3 185 -3 102 0 185 3 185 6 0 4 18 74 39 158 22 83 63 241 91 351 29
110 58 225 66 255 9 30 17 64 19 75 5 19 41 160 109 423 l34 132 -291 0 -292
-1 -95 -147 c-52 -81 -139 -217 -195 -302 -55 -85 -152 -235 -215 -332 -63
-97 -115 -176 -117 -175 -1 2 -5 52 -8 112 -3 61 -8 139 -10 175 -2 36 -7 106
-10 155 -3 50 -8 117 -10 150 -4 65 -17 281 -19 330 l-1 30 -291 3 -291 2 -31
-107z"/>
<path d="M3707 3573 c-3 -10 -31 -101 -61 -203 -187 -630 -346 -1172 -346
-1176 0 -7 1186 2 1225 9 17 3 53 9 80 13 172 25 303 88 397 189 16 17 43 59
61 95 27 55 32 75 32 135 -1 78 -14 110 -66 163 -45 45 -110 82 -183 103 -34
10 -59 18 -56 19 3 1 16 3 29 6 39 7 161 62 203 90 155 108 174 301 41 430
-55 54 -127 87 -249 115 -94 21 -124 23 -601 27 -480 4 -501 3 -506 -15z m938
-238 c70 -24 97 -54 102 -113 7 -66 -23 -107 -107 -149 -35 -17 -66 -31 -69
-31 -3 1 -31 -2 -61 -7 -84 -12 -558 -13 -554 0 9 28 86 291 87 300 4 19 32
21 291 19 218 -1 269 -5 311 -19z m-94 -574 c153 -49 175 -183 46 -278 -74
-55 -155 -65 -524 -67 -245 -2 -293 0 -293 12 0 8 13 57 29 110 16 54 39 130
51 170 l22 74 317 -5 c201 -2 329 -8 352 -16z"/>
</g>
</svg>
